<svg id="_0334_eco_car" xmlns="http://www.w3.org/2000/svg" viewBox="0 0 500 500" data-imageid="electric-car-58" imageName="Electric Car" class="illustrations_image" style="width: 166px;"><defs><style>.cls-1_electric-car-58{fill:#fff;}.cls-2_electric-car-58{fill:#a5a5a5;}.cls-3_electric-car-58{opacity:.58;}.cls-3_electric-car-58,.cls-4_electric-car-58,.cls-5_electric-car-58,.cls-6_electric-car-58,.cls-7_electric-car-58,.cls-8_electric-car-58,.cls-9_electric-car-58,.cls-10_electric-car-58{fill:none;}.cls-4_electric-car-58{opacity:.54;}.cls-5_electric-car-58{opacity:.44;}.cls-11_electric-car-58{fill:#e6e6e6;}.cls-6_electric-car-58{opacity:.09;}.cls-7_electric-car-58{opacity:.68;}.cls-8_electric-car-58{opacity:.73;}.cls-9_electric-car-58{opacity:.3;}.cls-12_electric-car-58{fill:#24285b;}.cls-13_electric-car-58{fill:#000001;}.cls-14_electric-car-58{fill:#ffd200;}.cls-10_electric-car-58{opacity:.1;}.cls-15_electric-car-58{fill:#68e1fd;}</style></defs><g id="sd_electric-car-58" class="cls-9_electric-car-58"><ellipse class="cls-11_electric-car-58" cx="250" cy="447.46" rx="242.39" ry="31.92"/></g><g id="electric_fuel_electric-car-58"><path class="cls-12_electric-car-58" d="m237.42,399.98c-11.42,0-20.71-9.29-20.71-20.71v-66.26c0-7.7-6.26-13.96-13.96-13.96h-20.01v-6.74h20.01c11.42,0,20.71,9.29,20.71,20.71v66.26c0,7.7,6.26,13.97,13.96,13.97,11.99,0,22.06-8.98,23.42-20.89l1.33-11.56c1.54-13.4,12.87-23.51,26.36-23.51h2.64v6.74h-2.64c-10.06,0-18.51,7.54-19.66,17.53l-1.33,11.56c-1.76,15.31-14.71,26.86-30.12,26.86Z"/><g class="cls-3_electric-car-58"><path class="cls-15_electric-car-58 targetColor" d="m80.29,118.06s-13.94-3.81-16.97-16.78c0,0,21.6-4.37,22.21,17.93l-5.24-1.15Z" style="fill: rgb(59, 191, 38);"/></g><g class="cls-8_electric-car-58"><path class="cls-15_electric-car-58 targetColor" d="m82,116.68s-9.74-15.4-1.17-29.79c0,0,16.42,10.43,9.12,29.82l-7.96-.03Z" style="fill: rgb(59, 191, 38);"/></g><path class="cls-15_electric-car-58 targetColor" d="m84.51,116.69s5.15-16.26,20.7-19.34c0,0,2.92,10.56-10.07,19.38l-10.63-.04Z" style="fill: rgb(59, 191, 38);"/><polygon class="cls-12_electric-car-58" points="74.4 116.32 77.22 135.65 95.02 135.73 97.64 116.42 74.4 116.32"/><rect class="cls-2_electric-car-58" x="36.42" y="414.01" width="170.54" height="26.53"/><rect class="cls-11_electric-car-58" x="50.21" y="135.73" width="143.1" height="278.29"/><circle class="cls-2_electric-car-58" cx="121.69" cy="203.74" r="37.46"/><g class="cls-5_electric-car-58"><rect class="cls-1_electric-car-58" x="82.74" y="269.61" width="78.62" height="120.75"/></g><polygon class="cls-1_electric-car-58" points="112.81 206.35 126.76 179.14 123.65 200.23 135.2 200.23 121.94 225.83 124.76 206.67 112.81 206.35"/></g><g id="car_electric-car-58"><path class="cls-15_electric-car-58 targetColor" d="m268.86,301.83h-16.15c-2.2,0-4.18,1.36-4.97,3.42l-2.49,6.49c-1.34,3.48,1.24,7.23,4.97,7.23h18.64v-17.13Z" style="fill: rgb(59, 191, 38);"/><g class="cls-5_electric-car-58"><path class="cls-1_electric-car-58" d="m251.23,308.55h0c-1.31,3.48,1.26,7.2,4.98,7.2h8.77s2.54-10.64,2.54-10.64h-11.31c-2.21,0-4.2,1.37-4.98,3.44Z"/></g><path class="cls-15_electric-car-58 targetColor" d="m443.68,301.83h16.15c2.2,0,4.18,1.36,4.97,3.42l2.49,6.49c1.34,3.48-1.24,7.23-4.97,7.23h-18.64v-17.13Z" style="fill: rgb(59, 191, 38);"/><g class="cls-5_electric-car-58"><path class="cls-1_electric-car-58" d="m461.31,308.55h0c1.31,3.48-1.26,7.2-4.98,7.2h-8.77s-2.54-10.64-2.54-10.64h11.31c2.21,0,4.2,1.37,4.98,3.44Z"/></g><rect class="cls-12_electric-car-58" x="262.44" y="367.63" width="32.33" height="72.91" rx="9.31" ry="9.31"/><rect class="cls-12_electric-car-58" x="412.85" y="367.63" width="32.33" height="72.91" rx="9.31" ry="9.31"/><path class="cls-15_electric-car-58 targetColor" d="m463.4,350.23l-10.03-28.05h-197.1l-10.03,28.05c-4.59,12.83-3.93,26.96,1.84,39.3h0c3.2,6.85,10.08,11.23,17.64,11.23h178.19c7.56,0,14.44-4.38,17.64-11.23,5.76-12.35,6.43-26.47,1.84-39.3Z" style="fill: rgb(59, 191, 38);"/><path class="cls-15_electric-car-58 targetColor" d="m256.28,322.18l22.63-67.42c2.72-8.09,11.74-13.7,22.04-13.7h111.47c10.66,0,19.91,6.01,22.27,14.47l18.64,66.65h-197.05Z" style="fill: rgb(59, 191, 38);"/><g class="cls-6_electric-car-58"><polygon class="cls-13_electric-car-58" points="288.7 340.15 428.03 340.15 431.79 360.01 286.67 360.01 288.7 341.26 288.7 340.15"/></g><g class="cls-7_electric-car-58"><path class="cls-1_electric-car-58" d="m289.71,263.69l-16.41,48.03h166.26l-14.76-47.61c-2.47-7.98-11.28-13.56-21.38-13.56h-92.47c-9.9,0-18.59,5.37-21.24,13.14Z"/></g><path class="cls-12_electric-car-58" d="m332.75,305.86h-6.74c0-10.17-8.28-18.45-18.45-18.45s-18.45,8.28-18.45,18.45h-6.74c0-13.89,11.3-25.19,25.19-25.19s25.19,11.3,25.19,25.19Z"/><path class="cls-1_electric-car-58" d="m266.56,340.15h19.14c12.21,0,22.94,8.11,26.26,19.86h0s-45.4,0-45.4,0c-6.45,0-11.19-6.06-9.64-12.32h0c1.1-4.43,5.07-7.54,9.64-7.54Z"/><g class="cls-6_electric-car-58"><path class="cls-13_electric-car-58" d="m286.67,272.58s29.05-7.7,38.15,1.67c9.1,9.37,8.3,30.81,21.15,31.6,12.85.79,39.62,2.93,42.3-4.03,2.68-6.96,2.41-28.11,10.44-29.72s28.28-.94,28.28-.94l12.56,40.54h-166.26l13.37-39.13Z"/></g><path class="cls-1_electric-car-58" d="m442.83,340.15h-20.16c-12.21,0-22.94,8.11-26.26,19.86h0s46.42,0,46.42,0c6.5,0,11.24-6.13,9.61-12.42h0c-1.14-4.38-5.09-7.44-9.61-7.44Z"/><g class="cls-4_electric-car-58"><path class="cls-1_electric-car-58" d="m243.3,370.26h222.87v7.55c0,12.68-10.28,22.95-22.95,22.95h-175.85c-13.29,0-24.06-10.77-24.06-24.06v-6.45Z"/></g><rect class="cls-14_electric-car-58" x="323.08" y="368.16" width="62.98" height="34.71"/><rect class="cls-1_electric-car-58" x="341.95" y="326.46" width="22.08" height="6.96"/><path class="cls-12_electric-car-58" d="m274.83,311.56s5.74-8.22,20.47-11.43,32.93-.59,44.98,11.46l-65.45-.03Z"/></g><g id="sun_electric-car-58"><circle class="cls-14_electric-car-58" cx="291.17" cy="91.98" r="46.69"/><g class="cls-10_electric-car-58"><circle class="cls-14_electric-car-58" cx="291.17" cy="91.98" r="71.36"/></g></g></svg>